<?xml version="1.0" encoding="utf-8"?>
<!-- Generator: Adobe Illustrator 21.0.2, SVG Export Plug-In . SVG Version: 6.00 Build 0)  -->
<svg version="1.1" id="Layer_1" xmlns="http://www.w3.org/2000/svg" xmlns:xlink="http://www.w3.org/1999/xlink" x="0px" y="0px"
	 viewBox="0 0 360 231" style="enable-background:new 0 0 360 231;" xml:space="preserve">
<style type="text/css">
	.st0{fill:#77CE3E;}
	.st1{fill:#5BB222;}
</style>
<rect class="st0" width="360" height="231"/>
<g>
	<g>
		<path class="st1" d="M35,42.9h13.5V29.4H35V42.9z M37.1,31.5h9.3v9.3h-9.3V31.5z"/>
	</g>
	<polygon class="st1" points="5.8,126.2 -1,126.2 -1,128.3 3.6,128.3 3.6,137.7 -1,137.7 -1,139.8 5.8,139.8 	"/>
	<g>
		<path class="st1" d="M273.1,196.6h13.5v-13.6h-13.5V196.6z M275.3,185.2h9.3v9.3h-9.3V185.2z"/>
	</g>
	<polygon class="st1" points="236.3,6.8 236.3,0 234.1,0 234.1,4.7 224.9,4.7 224.9,0 222.7,0 222.7,6.8 	"/>
	<g>
		<path class="st1" d="M55.4,94.5c-4.4,0-8.1,3.6-8.1,8.1s3.6,8.1,8.1,8.1s8.1-3.6,8.1-8.1S59.9,94.5,55.4,94.5z M55.4,108.5
			c-3.3,0-5.9-2.7-5.9-6s2.7-6,5.9-6s5.9,2.7,5.9,6S58.7,108.5,55.4,108.5z"/>
	</g>
	<g>
		<path class="st1" d="M205.3,144.1c-4.4,0-8.1,3.6-8.1,8.1c0,4.5,3.6,8.1,8.1,8.1c4.4,0,8.1-3.6,8.1-8.1
			C213.4,147.8,209.8,144.1,205.3,144.1z M205.3,158.2c-3.3,0-5.9-2.7-5.9-6c0-3.3,2.7-6,5.9-6c3.3,0,5.9,2.7,5.9,6
			C211.3,155.5,208.6,158.2,205.3,158.2z"/>
	</g>
	<g>
		<path class="st1" d="M162.5,71.4c-4.4,0-8.1,3.6-8.1,8.1c0,4.5,3.6,8.1,8.1,8.1s8.1-3.6,8.1-8.1C170.6,75,167,71.4,162.5,71.4z
			 M162.5,85.4c-3.3,0-5.9-2.7-5.9-6c0-3.3,2.7-6,5.9-6c3.3,0,5.9,2.7,5.9,6C168.5,82.8,165.8,85.4,162.5,85.4z"/>
	</g>
	<g>
		<path class="st1" d="M321.1,56.4c-4.4,0-8.1,3.6-8.1,8.1c0,4.5,3.6,8.1,8.1,8.1c4.4,0,8.1-3.6,8.1-8.1
			C329.2,60,325.5,56.4,321.1,56.4z M321.1,70.4c-3.3,0-5.9-2.7-5.9-6c0-3.3,2.7-6,5.9-6s5.9,2.7,5.9,6
			C327,67.8,324.4,70.4,321.1,70.4z"/>
	</g>
	<polygon class="st1" points="157.3,5 157.8,17.4 145.6,17 145.9,29.5 133.8,29.1 133.8,42.9 136,42.9 135.9,31.3 148.1,31.7 
		147.7,19.2 160,19.6 159.5,7.2 171.8,7.6 171.5,0 169.4,0 169.6,5.4 	"/>
	<polygon class="st1" points="12.2,194.8 20.3,204 29,195.2 37.1,204.4 45.9,195.5 53.9,204 55.4,202.5 45.9,192.5 37.2,201.3 
		29.1,192.1 20.4,200.9 12.3,191.7 3.5,200.5 -1,195.3 -1,198.6 3.4,203.6 	"/>
	<g>
		<path class="st1" d="M260.1,80c-1.7-1.4-3.5-3.1-5.9-1.8c-2.4,1.4-2.2,4.3-2,6.9c0.2,2.7,0.3,4.4-1,5.2c-1.3,0.7-2.5-0.2-4.5-1.8
			c-2-1.6-4.4-3.5-7.1-2c-2.7,1.5-2.4,4.7-2.1,7.2c0.3,2.5,0.3,4.1-0.9,4.9c-1.3,0.8-2.8-0.2-5-1.8c-2-1.5-4.3-3.2-6.6-1.9
			c-2.3,1.3-2.1,4.3-2,7c0.1,2.3,0.2,4.4-1,5.1c-1,0.6-2.3-0.3-4.2-1.7c-2.1-1.6-4.7-3.6-7.4-2c-2.6,1.5-2.2,4.2-1.9,6.6
			c0.4,2.8,0.5,4.6-1.5,5.7l1,1.9c3.4-1.9,2.9-5.2,2.6-7.9c-0.3-2.6-0.4-3.8,0.8-4.4c1.4-0.8,2.9,0.1,5.1,1.8c2,1.5,4.2,3.2,6.5,1.9
			c2.3-1.3,2.2-4.4,2.1-7.1c-0.1-2.2-0.2-4.3,0.9-5c1-0.6,2.4,0.3,4.3,1.8c2.1,1.5,4.7,3.5,7.3,2c2.5-1.4,2.2-4.4,2-6.9
			c-0.3-2.7-0.4-4.3,1-5.1c1.4-0.8,2.7,0.2,4.7,1.8c1.9,1.5,4.3,3.4,6.9,1.9c2.6-1.5,2.3-4.5,2.1-7.2c-0.2-2.6-0.3-4.2,0.9-4.9
			c0.9-0.5,1.7,0,3.4,1.5c2,1.8,4.8,4.2,8.8,1.9l-1-1.9C264,83.1,262.4,82,260.1,80z"/>
	</g>
	<g>
		<path class="st1" d="M146.2,171.3c-2.1-1.9-3.3-3.2-2.5-5.3l-2-0.7c-1.3,3.7,1.1,5.9,3.1,7.7c1.9,1.7,2.7,2.6,2.2,3.9
			c-0.6,1.6-2.3,1.8-5.1,1.9c-2.5,0.1-5.3,0.3-6.2,2.8c-0.9,2.5,1.2,4.8,3,6.7c1.5,1.6,3,3.2,2.5,4.4c-0.4,1.1-2,1.3-4.4,1.5
			c-2.6,0.2-5.8,0.4-6.8,3.3c-1,2.8,1.1,4.8,3,6.5c1.9,1.8,3.1,3.1,2.5,4.6c-0.5,1.5-2.2,1.6-4.8,1.7c-2.4,0.1-5.5,0.2-6.5,3
			c-1,2.8,1.1,5,3.1,6.9c1.8,1.8,2.9,3,2.5,4.3c-0.4,1-1.3,1.1-3.6,1.1c-2.7,0-6.4,0-7.9,4.3l2,0.7c1-2.7,2.9-2.9,5.9-2.9
			c2.2,0,4.7,0,5.6-2.5c1-2.6-1.1-4.7-3-6.5c-1.9-1.9-3.1-3.2-2.6-4.6c0.5-1.4,2.1-1.5,4.6-1.6c2.5-0.1,5.6-0.2,6.7-3.1
			c1.1-2.9-1.2-5.1-3.1-6.8c-1.9-1.8-2.9-2.9-2.5-4.3c0.5-1.4,2.3-1.7,5-1.9c2.5-0.2,5.4-0.4,6.3-2.9c0.9-2.5-1.2-4.7-3-6.6
			c-1.6-1.7-3-3.2-2.5-4.5c0.4-1.1,1.9-1.3,4.3-1.4c2.6-0.2,5.9-0.3,6.9-3.3C150,174.7,148,172.9,146.2,171.3z"/>
	</g>
	<g>
		<path class="st1" d="M110.9,80.3c-1.9,1.8-3.1,2.8-4.5,2.3c-1.3-0.5-1.4-2-1.4-4.4c0-2.4,0-5.4-2.8-6.5c-2.7-1.1-4.9,1-6.6,2.7
			c-1.7,1.7-2.9,2.7-4.1,2.2c-1.3-0.5-1.5-2.3-1.6-4.9c-0.1-2.4-0.2-5.1-2.5-6.1c-2.3-0.9-4.5,1-6.4,2.6c-1.6,1.4-3.2,2.8-4.4,2.3
			c-1-0.4-1.1-1.9-1.2-4.2c-0.1-2.5-0.1-5.6-2.9-6.7c-2.6-1.1-4.4,0.8-6,2.5c-1.9,2-3.1,3.1-5.2,2.3l-0.8,1.9
			c3.4,1.4,5.6-0.9,7.4-2.7c1.7-1.8,2.6-2.5,3.8-2c1.5,0.6,1.6,2.3,1.7,4.9c0.1,2.4,0.1,5.1,2.5,6c2.4,1,4.6-1,6.5-2.7
			c1.6-1.4,3.1-2.7,4.3-2.3c1,0.4,1.2,2,1.3,4.3c0.1,2.5,0.2,5.6,2.9,6.7c2.6,1,4.6-0.9,6.3-2.7c1.8-1.8,3-2.8,4.4-2.3
			c1.4,0.6,1.5,2.1,1.5,4.6c0,2.3,0,5.3,2.7,6.3c2.6,1.1,4.8-0.9,6.6-2.7c1.8-1.7,3-2.7,4.1-2.2c0.9,0.4,1,1.3,0.9,3.5
			c-0.1,2.6-0.2,6.1,3.9,7.7l0.8-1.9c-2.6-1-2.7-2.9-2.6-5.8c0.1-2.1,0.2-4.5-2.2-5.4C114.7,76.6,112.7,78.6,110.9,80.3z"/>
	</g>
	<g>
		<path class="st1" d="M306.1,145.5c-0.3,2.6-0.6,4.2-2,4.6c-1.3,0.4-2.3-0.7-3.9-2.5c-1.5-1.8-3.4-4.1-6.3-3.2
			c-2.8,0.9-3.1,3.9-3.3,6.3c-0.2,2.4-0.5,3.9-1.8,4.4c-1.4,0.4-2.6-0.8-4.3-2.7c-1.6-1.8-3.4-3.8-5.8-3.1c-2.4,0.8-2.8,3.6-3.2,6.1
			c-0.3,2.1-0.7,4.2-1.9,4.6c-1.1,0.3-2.1-0.7-3.6-2.4c-1.6-1.9-3.7-4.2-6.6-3.3c-2.7,0.9-2.9,3.5-3,5.8c-0.2,2.7-0.5,4.4-2.5,5
			l0.6,1.9c3.5-1.1,3.7-4.3,3.9-6.8c0.2-2.5,0.4-3.6,1.6-4c1.5-0.5,2.7,0.7,4.4,2.7c1.6,1.8,3.3,3.8,5.7,3c2.5-0.8,2.9-3.7,3.3-6.2
			c0.3-2.1,0.6-4.1,1.8-4.5c1.1-0.3,2.1,0.8,3.7,2.5c1.7,1.8,3.7,4.1,6.5,3.3c2.7-0.9,2.9-3.6,3.2-6.1c0.2-2.5,0.5-4.1,1.9-4.6
			c1.4-0.5,2.5,0.7,4.1,2.6c1.5,1.8,3.4,4,6.1,3.2c2.7-0.9,3.1-3.8,3.4-6.3c0.3-2.5,0.6-4,1.8-4.4c1-0.3,1.6,0.4,2.9,2.1
			c1.6,2,3.7,4.8,7.9,3.5l-0.6-1.9c-2.6,0.8-3.9-0.5-5.7-2.8c-1.3-1.7-2.7-3.5-5.1-2.8C306.7,140.2,306.4,143,306.1,145.5z"/>
	</g>
	<path class="st1" d="M34.3,73.8c0-0.6-0.5-1.1-1.1-1.1H-1v2.1h34.2C33.8,74.9,34.3,74.4,34.3,73.8z"/>
	<polygon class="st1" points="354.4,137.7 354.4,128.3 359,128.3 359,126.2 352.2,126.2 352.2,139.8 359,139.8 359,137.7 	"/>
	<polygon class="st1" points="355.5,191.3 345.5,200.9 346.9,202.4 355.3,194.4 359,198.6 359,195.3 	"/>
	<path class="st1" d="M353.3,72.7c-0.6,0-1.1,0.5-1.1,1.1c0,0.6,0.5,1.1,1.1,1.1h5.7v-2.1H353.3z"/>
	<g>
		<path class="st1" d="M145.4,98.2c-0.4-0.5-1-0.5-1.5-0.2c-0.5,0.4-0.5,1-0.2,1.5l26.3,33c0.2,0.3,0.5,0.4,0.8,0.4
			c0.2,0,0.5-0.1,0.7-0.2c0.5-0.4,0.5-1,0.2-1.5L145.4,98.2z"/>
	</g>
	<g>
		<path class="st1" d="M290.4,230.9c-0.5,0.3-0.7,0.9-0.4,1.4c0.3,0.5,0.9,0.7,1.4,0.4l36.7-20.8c0.3-0.2,0.5-0.4,0.5-0.8
			c0-0.2,0-0.5-0.1-0.7c-0.3-0.5-0.9-0.7-1.4-0.4L290.4,230.9z"/>
	</g>
	<g>
		<path class="st1" d="M43.7,136.6c-13.6,6-16.1,21.8-16.2,22.4c-0.1,0.6,0.3,1.2,0.9,1.3c0.2,0,0.4,0,0.6-0.1
			c0.4-0.1,0.6-0.5,0.7-0.9c0-0.2,2.5-15.2,14.9-20.7c6.5-2.9,13.3-1.8,18-0.4c5.1,1.5,8.7,3.8,8.7,3.9c0.5,0.3,1.2,0.2,1.5-0.3
			c0.3-0.5,0.2-1.2-0.3-1.6C71.9,139.8,57.2,130.6,43.7,136.6z"/>
	</g>
	<g>
		<path class="st1" d="M243.7,64.9c-0.2-0.3-0.6-0.4-1-0.3c-0.1,0-14.2,3.1-23.4-5.9c-4.8-4.7-6.2-11.2-6.6-15.8
			c-0.4-5.1,0.3-9,0.3-9.1c0.1-0.6-0.3-1.1-0.8-1.2c-0.6-0.1-1.1,0.3-1.2,0.8c-0.1,0.7-3.1,16.9,6.9,26.7c10,9.9,24.7,6.6,25.4,6.5
			c0.6-0.1,0.9-0.7,0.8-1.3C243.9,65.2,243.8,65,243.7,64.9z"/>
	</g>
	<path class="st1" d="M96,0h-3.1c-3.6,3.3-9.1,6.9-16.1,6.9c-6.7,0-12.3-3.5-15.8-6.5C61,0.3,60.8,0.1,60.7,0h-3.1
		c4.1,4.1,10.8,9.1,19.3,9C85.8,9,92.3,3.9,96,0z"/>
	<g>
		<path class="st1" d="M206.4,204.3c-10.4-9.5-25-5.7-25.6-5.5c-0.6,0.2-0.9,0.7-0.7,1.3c0.1,0.2,0.1,0.4,0.3,0.5
			c0.3,0.3,0.6,0.4,1,0.3c0.1,0,14.1-3.7,23.6,5c4.9,4.5,6.6,10.9,7.2,15.5c0.6,5,0,9,0,9.1c-0.1,0.6,0.3,1.1,0.9,1.2
			c0.6,0.1,1.1-0.3,1.2-0.9C214.4,230,216.7,213.7,206.4,204.3z"/>
	</g>
	<g>
		<path class="st1" d="M99.9,139.8c-0.6-0.2-1.1,0.2-1.3,0.7l-11.5,41.8c-0.2,0.6,0.2,1.2,0.7,1.3c0.1,0,0.2,0,0.3,0
			c0.5,0,0.9-0.3,1-0.8l11.5-41.8C100.8,140.6,100.5,140,99.9,139.8z"/>
	</g>
	<path class="st1" d="M19.8,6.7c0.1,0,0.2-0.1,0.2-0.1c0.4-0.3,0.5-0.8,0.3-1.3L18,0h-2.3l2.7,6.1C18.6,6.7,19.3,6.9,19.8,6.7z"/>
	<polygon class="st1" points="242.7,223.2 242.7,230 244.8,230 244.8,225.3 254.1,225.3 254.1,230 256.2,230 256.2,223.2 	"/>
	<polygon class="st1" points="330.6,20.1 330.5,18 316.8,18.1 317,25 319.1,25 318.9,20.2 	"/>
	<path class="st1" d="M55,223.7c-0.3-0.5-1-0.6-1.5-0.3c-0.5,0.3-0.6,1-0.3,1.5c0.2,0.2,1.7,2.5,4.3,5.1h3.1
		C57.1,226.8,55,223.7,55,223.7z"/>
	<path class="st1" d="M99.1,224.3c-0.2-0.1-0.3-0.2-0.5-0.2c-0.4,0-0.7,0.2-0.9,0.5c0,0.1-1.7,2.6-4.7,5.4H96
		c2.1-2.2,3.3-4.1,3.4-4.3C99.8,225.2,99.6,224.6,99.1,224.3z"/>
	<path class="st1" d="M289.9,78c-0.5,0.2-0.8,0.9-0.5,1.4l14.6,33.6h2.3l-15-34.5C291,78,290.4,77.7,289.9,78z"/>
	<g>
		<path class="st1" d="M252.7,39.6c-0.4,0-0.8-0.2-0.9-0.6c-0.3-0.5-0.1-1.2,0.5-1.4l25.9-13c0.5-0.3,1.2-0.1,1.4,0.5
			c0.3,0.5,0.1,1.2-0.5,1.4l-25.9,13C253,39.6,252.8,39.6,252.7,39.6z"/>
	</g>
</g>
</svg>
