<?xml version="1.0" encoding="iso-8859-1"?>
<!-- Generator: Adobe Illustrator 21.0.2, SVG Export Plug-In . SVG Version: 6.00 Build 0)  -->
<svg version="1.1" id="Layer_1" xmlns="http://www.w3.org/2000/svg" xmlns:xlink="http://www.w3.org/1999/xlink" x="0px" y="0px"
	 viewBox="0 0 360 231" style="enable-background:new 0 0 360 231;" xml:space="preserve">
<rect y="0" style="fill:#F9B52D;" width="360" height="231"/>
<g>
	<g>
		<path style="fill:#F9A62D;" d="M35.1,42.9h13.6V29.4H35.1V42.9z M37.2,31.5h9.3v9.3h-9.3V31.5z"/>
	</g>
	<polygon style="fill:#F9A62D;" points="5.8,126.2 -1,126.2 -1,128.3 3.7,128.3 3.7,137.7 -1,137.7 -1,139.8 5.8,139.8 	"/>
	<g>
		<path style="fill:#F9A62D;" d="M273.9,196.6h13.6V183h-13.6V196.6z M276,185.2h9.3v9.3H276V185.2z"/>
	</g>
	<polygon style="fill:#F9A62D;" points="236.9,6.8 236.9,0 234.8,0 234.8,4.7 225.5,4.7 225.5,0 223.4,0 223.4,6.8 	"/>
	<g>
		<path style="fill:#F9A62D;" d="M55.6,94.5c-4.5,0-8.1,3.6-8.1,8.1s3.6,8.1,8.1,8.1s8.1-3.6,8.1-8.1S60,94.5,55.6,94.5z
			 M55.6,108.5c-3.3,0-6-2.7-6-6s2.7-6,6-6s6,2.7,6,6S58.9,108.5,55.6,108.5z"/>
	</g>
	<g>
		<path style="fill:#F9A62D;" d="M205.9,144.1c-4.5,0-8.1,3.6-8.1,8.1s3.6,8.1,8.1,8.1s8.1-3.6,8.1-8.1
			C214,147.8,210.4,144.1,205.9,144.1z M205.9,158.2c-3.3,0-6-2.7-6-6s2.7-6,6-6s6,2.7,6,6S209.2,158.2,205.9,158.2z"/>
	</g>
	<g>
		<path style="fill:#F9A62D;" d="M163,71.4c-4.5,0-8.1,3.6-8.1,8.1s3.6,8.1,8.1,8.1s8.1-3.6,8.1-8.1S167.4,71.4,163,71.4z M163,85.4
			c-3.3,0-6-2.7-6-6s2.7-6,6-6s6,2.7,6,6C168.9,82.8,166.3,85.4,163,85.4z"/>
	</g>
	<g>
		<path style="fill:#F9A62D;" d="M322,56.4c-4.5,0-8.1,3.6-8.1,8.1s3.6,8.1,8.1,8.1s8.1-3.6,8.1-8.1S326.4,56.4,322,56.4z M322,70.4
			c-3.3,0-6-2.7-6-6c0-3.3,2.7-6,6-6s6,2.7,6,6C327.9,67.8,325.3,70.4,322,70.4z"/>
	</g>
	<polygon style="fill:#F9A62D;" points="157.8,5 158.2,17.4 146,17 146.4,29.5 134.1,29.1 134.2,42.9 136.3,42.9 136.3,31.3 
		148.6,31.7 148.2,19.2 160.4,19.6 160,7.2 172.2,7.6 172,0 169.9,0 170,5.4 	"/>
	<polygon style="fill:#F9A62D;" points="12.2,194.8 20.3,204 29.1,195.2 37.2,204.4 46,195.5 54,204 55.6,202.5 46,192.5 
		37.3,201.3 29.2,192.1 20.4,200.9 12.3,191.7 3.5,200.5 -1,195.3 -1,198.6 3.4,203.6 	"/>
	<g>
		<path style="fill:#F9A62D;" d="M260.9,80c-1.7-1.4-3.6-3.1-5.9-1.8c-2.4,1.4-2.2,4.3-2,6.9c0.2,2.7,0.3,4.4-1.1,5.2
			c-1.3,0.7-2.6-0.2-4.5-1.8c-2-1.6-4.4-3.5-7.1-2c-2.7,1.5-2.4,4.7-2.1,7.2c0.3,2.5,0.3,4.1-0.9,4.9c-1.3,0.8-2.9-0.2-5-1.8
			c-2-1.5-4.4-3.2-6.6-1.9c-2.3,1.3-2.2,4.3-2,7c0.1,2.3,0.2,4.4-1,5.1c-1,0.6-2.3-0.3-4.2-1.7c-2.1-1.6-4.7-3.6-7.5-2
			c-2.6,1.5-2.2,4.2-1.9,6.6c0.4,2.8,0.5,4.6-1.5,5.7l1,1.9c3.4-1.9,2.9-5.2,2.6-7.9c-0.3-2.6-0.4-3.8,0.8-4.4
			c1.4-0.8,2.9,0.1,5.1,1.8c2,1.5,4.2,3.2,6.6,1.9c2.4-1.3,2.2-4.4,2.1-7.1c-0.1-2.2-0.2-4.3,0.9-5c1-0.6,2.4,0.3,4.3,1.8
			c2.1,1.5,4.7,3.5,7.3,2c2.5-1.4,2.2-4.4,2-6.9c-0.3-2.7-0.4-4.3,1-5.1c1.4-0.8,2.7,0.2,4.8,1.8c1.9,1.5,4.3,3.4,6.9,1.9
			c2.6-1.5,2.4-4.5,2.1-7.2c-0.2-2.6-0.3-4.2,0.9-4.9c0.9-0.5,1.7,0,3.4,1.5c2,1.8,4.8,4.2,8.8,1.9l-1-1.9
			C264.7,83.1,263.2,82,260.9,80z"/>
	</g>
	<g>
		<path style="fill:#F9A62D;" d="M146.6,171.3c-2.1-1.9-3.3-3.2-2.5-5.3l-2-0.7c-1.3,3.7,1.1,5.9,3.1,7.7c1.9,1.7,2.7,2.6,2.2,3.9
			c-0.6,1.6-2.3,1.8-5.1,1.9c-2.5,0.1-5.3,0.3-6.2,2.8s1.2,4.8,3,6.7c1.5,1.6,3,3.2,2.5,4.4c-0.4,1.1-2,1.3-4.4,1.5
			c-2.6,0.2-5.8,0.4-6.9,3.3c-1,2.8,1.1,4.8,3,6.5c1.9,1.8,3.1,3.1,2.5,4.6c-0.5,1.5-2.2,1.6-4.8,1.7c-2.5,0.1-5.5,0.2-6.5,3
			s1.1,5,3.1,6.9c1.8,1.8,2.9,3,2.5,4.3c-0.4,1-1.3,1.1-3.6,1.1c-2.7,0-6.4,0-7.9,4.3l2,0.7c1-2.7,2.9-2.9,5.9-2.9
			c2.2,0,4.7,0,5.6-2.5c1-2.6-1.1-4.7-3-6.5c-1.9-1.9-3.1-3.2-2.6-4.6c0.5-1.4,2.1-1.5,4.6-1.6s5.6-0.2,6.7-3.1
			c1.1-2.9-1.2-5.1-3.1-6.8c-1.9-1.8-3-2.9-2.5-4.3c0.5-1.4,2.3-1.7,5-1.9c2.5-0.2,5.4-0.4,6.3-2.9c0.9-2.5-1.2-4.7-3-6.6
			c-1.6-1.7-3-3.2-2.6-4.5c0.4-1.1,1.9-1.3,4.3-1.4c2.6-0.2,5.9-0.3,7-3.3C150.4,174.7,148.4,172.9,146.6,171.3z"/>
	</g>
	<g>
		<path style="fill:#F9A62D;" d="M111.2,80.3c-1.9,1.8-3.1,2.8-4.5,2.3c-1.3-0.5-1.4-2-1.4-4.4s0-5.4-2.8-6.5
			c-2.7-1.1-4.9,1-6.6,2.7s-2.9,2.7-4.2,2.2c-1.4-0.5-1.5-2.3-1.6-4.9c-0.1-2.4-0.2-5.1-2.5-6.1c-2.3-0.9-4.5,1-6.4,2.6
			c-1.6,1.4-3.2,2.8-4.4,2.3c-1-0.4-1.2-1.9-1.2-4.2c-0.1-2.5-0.1-5.6-3-6.7c-2.6-1.1-4.4,0.8-6,2.5c-1.9,2-3.1,3.1-5.2,2.3
			l-0.8,1.9c3.4,1.4,5.6-0.9,7.4-2.7c1.7-1.8,2.6-2.5,3.8-2c1.5,0.6,1.6,2.3,1.7,4.9c0.1,2.4,0.1,5.1,2.5,6c2.4,1,4.6-1,6.5-2.7
			c1.6-1.4,3.1-2.7,4.3-2.3c1,0.4,1.2,2,1.3,4.3c0.1,2.5,0.2,5.6,2.9,6.7c2.6,1,4.6-0.9,6.3-2.7c1.8-1.8,3-2.8,4.4-2.3
			c1.4,0.6,1.5,2.1,1.5,4.6c0,2.3,0,5.3,2.7,6.3c2.7,1.1,4.8-0.9,6.6-2.7c1.8-1.7,3-2.7,4.2-2.2c0.9,0.4,1,1.3,0.9,3.5
			c-0.1,2.6-0.2,6.1,3.9,7.7l0.8-1.9c-2.6-1-2.7-2.9-2.6-5.8c0.1-2.1,0.2-4.5-2.2-5.4C115,76.6,113,78.6,111.2,80.3z"/>
	</g>
	<g>
		<path style="fill:#F9A62D;" d="M307,145.5c-0.3,2.6-0.6,4.2-2,4.6c-1.3,0.4-2.4-0.7-3.9-2.5s-3.5-4.1-6.3-3.2
			c-2.8,0.9-3.1,3.9-3.3,6.3c-0.2,2.4-0.5,3.9-1.8,4.4c-1.4,0.4-2.6-0.8-4.4-2.7c-1.6-1.8-3.5-3.8-5.8-3.1c-2.4,0.8-2.8,3.6-3.2,6.1
			c-0.3,2.1-0.7,4.2-1.9,4.6c-1.1,0.3-2.1-0.7-3.6-2.4c-1.6-1.9-3.7-4.2-6.6-3.3c-2.7,0.9-2.9,3.5-3,5.8c-0.2,2.7-0.5,4.4-2.5,5
			l0.6,1.9c3.5-1.1,3.8-4.3,3.9-6.8c0.2-2.5,0.4-3.6,1.6-4c1.5-0.5,2.7,0.7,4.4,2.7c1.6,1.8,3.3,3.8,5.8,3s2.9-3.7,3.3-6.2
			c0.3-2.1,0.6-4.1,1.9-4.5c1.1-0.3,2.2,0.8,3.7,2.5c1.7,1.8,3.7,4.1,6.5,3.3c2.7-0.9,2.9-3.6,3.2-6.1c0.2-2.5,0.5-4.1,1.9-4.6
			s2.5,0.7,4.1,2.6c1.5,1.8,3.4,4,6.1,3.2c2.7-0.9,3.1-3.8,3.4-6.3s0.6-4,1.8-4.4c1-0.3,1.6,0.4,2.9,2.1c1.6,2,3.7,4.8,7.9,3.5
			l-0.6-1.9c-2.6,0.8-3.9-0.5-5.7-2.8c-1.3-1.7-2.7-3.5-5.1-2.8C307.6,140.2,307.3,143,307,145.5z"/>
	</g>
	<path style="fill:#F9A62D;" d="M34.4,73.8c0-0.6-0.5-1.1-1.1-1.1H-1v2.1h34.3C33.9,74.9,34.4,74.4,34.4,73.8z"/>
	<polygon style="fill:#F9A62D;" points="355.3,137.7 355.3,128.3 360,128.3 360,126.2 353.2,126.2 353.2,139.8 360,139.8 360,137.7 
			"/>
	<polygon style="fill:#F9A62D;" points="356.5,191.3 346.4,200.9 347.9,202.4 356.3,194.4 360,198.6 360,195.3 	"/>
	<path style="fill:#F9A62D;" d="M354.3,72.7c-0.6,0-1.1,0.5-1.1,1.1s0.5,1.1,1.1,1.1h5.7v-2.1h-5.7V72.7z"/>
	<g>
		<path style="fill:#F9A62D;" d="M145.8,98.2c-0.4-0.5-1-0.5-1.5-0.2c-0.5,0.4-0.5,1-0.2,1.5l26.4,33c0.2,0.3,0.5,0.4,0.8,0.4
			c0.2,0,0.5-0.1,0.7-0.2c0.5-0.4,0.5-1,0.2-1.5L145.8,98.2z"/>
	</g>
	<g>
		<path style="fill:#F9A62D;" d="M291.2,230.9c-0.5,0.3-0.7,0.9-0.4,1.4c0.3,0.5,0.9,0.7,1.4,0.4l36.8-20.8c0.3-0.2,0.5-0.4,0.5-0.8
			c0-0.2,0-0.5-0.1-0.7c-0.3-0.5-0.9-0.7-1.4-0.4L291.2,230.9z"/>
	</g>
	<g>
		<path style="fill:#F9A62D;" d="M43.8,136.6c-13.6,6-16.2,21.8-16.3,22.4c-0.1,0.6,0.3,1.2,0.9,1.3c0.2,0,0.4,0,0.6-0.1
			c0.4-0.1,0.6-0.5,0.7-0.9c0-0.2,2.5-15.2,15-20.7c6.5-2.9,13.4-1.8,18-0.4c5.1,1.5,8.7,3.8,8.8,3.9c0.5,0.3,1.2,0.2,1.6-0.3
			c0.3-0.5,0.2-1.2-0.3-1.6C72.1,139.8,57.4,130.6,43.8,136.6z"/>
	</g>
	<g>
		<path style="fill:#F9A62D;" d="M244.4,64.9c-0.2-0.3-0.6-0.4-1-0.3c-0.1,0-14.3,3.1-23.5-5.9c-4.8-4.7-6.2-11.2-6.6-15.8
			c-0.4-5.1,0.3-9,0.3-9.1c0.1-0.6-0.3-1.1-0.8-1.2c-0.6-0.1-1.1,0.3-1.2,0.8c-0.1,0.7-3.1,16.9,6.9,26.7c10,9.9,24.8,6.6,25.4,6.5
			c0.6-0.1,0.9-0.7,0.8-1.3C244.6,65.2,244.5,65,244.4,64.9z"/>
	</g>
	<path style="fill:#F9A62D;" d="M96.3,0h-3.1c-3.6,3.3-9.1,6.9-16.1,6.9c-6.7,0-12.3-3.5-15.8-6.5C61.1,0.3,61,0.1,60.8,0h-3.1
		c4.1,4.1,10.9,9.1,19.4,9C86,9,92.6,3.9,96.3,0z"/>
	<g>
		<path style="fill:#F9A62D;" d="M206.9,204.3c-10.4-9.5-25-5.7-25.7-5.5c-0.6,0.2-0.9,0.7-0.8,1.3c0.1,0.2,0.1,0.4,0.3,0.5
			c0.3,0.3,0.6,0.4,1,0.3c0.1,0,14.2-3.7,23.7,5c5,4.5,6.7,10.9,7.2,15.5c0.6,5,0,9,0,9.1c-0.1,0.6,0.3,1.1,0.9,1.2
			c0.6,0.1,1.1-0.3,1.2-0.9C215,230,217.3,213.7,206.9,204.3z"/>
	</g>
	<g>
		<path style="fill:#F9A62D;" d="M100.2,139.8c-0.6-0.2-1.2,0.2-1.3,0.7l-11.5,41.8c-0.2,0.6,0.2,1.2,0.7,1.3c0.1,0,0.2,0,0.3,0
			c0.5,0,0.9-0.3,1-0.8l11.5-41.8C101.1,140.6,100.8,140,100.2,139.8z"/>
	</g>
	<path style="fill:#F9A62D;" d="M19.9,6.7c0.1,0,0.2-0.1,0.2-0.1c0.4-0.3,0.5-0.8,0.3-1.3L18.1,0h-2.3l2.7,6.1
		C18.7,6.7,19.3,6.9,19.9,6.7z"/>
	<polygon style="fill:#F9A62D;" points="243.4,223.2 243.4,230 245.5,230 245.5,225.3 254.8,225.3 254.8,230 256.9,230 256.9,223.2 
			"/>
	<polygon style="fill:#F9A62D;" points="331.5,20.1 331.5,18 317.6,18.1 317.9,25 320,25 319.8,20.2 	"/>
	<path style="fill:#F9A62D;" d="M55.1,223.7c-0.3-0.5-1-0.6-1.5-0.3s-0.6,1-0.3,1.5c0.2,0.2,1.7,2.5,4.3,5.1h3.1
		C57.3,226.8,55.2,223.7,55.1,223.7z"/>
	<path style="fill:#F9A62D;" d="M99.4,224.3c-0.2-0.1-0.3-0.2-0.5-0.2c-0.4,0-0.7,0.2-0.9,0.5c0,0.1-1.7,2.6-4.7,5.4h3.1
		c2.1-2.2,3.3-4.1,3.4-4.3C100,225.2,99.9,224.6,99.4,224.3z"/>
	<path style="fill:#F9A62D;" d="M290.7,78c-0.5,0.2-0.8,0.9-0.6,1.4l14.6,33.6h2.3l-15-34.5C291.9,78,291.2,77.7,290.7,78z"/>
	<g>
		<path style="fill:#F9A62D;" d="M253.4,39.6c-0.4,0-0.8-0.2-1-0.6c-0.3-0.5-0.1-1.2,0.5-1.4l25.9-13c0.5-0.3,1.2-0.1,1.4,0.5
			c0.3,0.5,0.1,1.2-0.5,1.4l-25.9,13C253.7,39.6,253.5,39.6,253.4,39.6z"/>
	</g>
</g>
</svg>
